<svg xmlns="http://www.w3.org/2000/svg" viewBox="0 0 192 192">
  <rect width="192" height="192" rx="40" fill="#2f5a44"></rect>
  <path d="M96 38c28 0 50 22 50 48 0 26-22 48-50 48S46 112 46 86c0-26 22-48 50-48z" fill="#8cc0a0"></path>
  <path d="M96 54c-14 0-22 12-22 22 0 6 4 12 10 14-4 4-6 10-6 16 10-6 18-6 24-2 4-4 8-10 8-18 0-10-6-32-14-32z" fill="#2f5a44"></path>
  <text x="96" y="172" text-anchor="middle" font-family="Georgia, serif" font-weight="700" font-size="22" fill="#f5efe0">GREEN MAN</text>
</svg>
